# xmcd
# 
# Track frame offsets:
#     150
#     22909
#     45063
#     60967
#     83293
#     96473
#     116690
#     132043
#     157905
#     180652
#     197576
#     217403
#     239553
#     260945
#     288708
#     314944
#     335289
# 
# Disc length: 4601
# 
# Revision: 1
# Processed by: cddbd v1.5.2PL0 Copyright (c) Steve Scherf et al.
# Submitted via: fre:ac v1.1beta1pre4
# 
DISCID=f311f711
DTITLE=Too Slim and the Taildraggers - Anthology D2
DYEAR=2014
DGENRE=Blues-Rock
TTITLE0=Everybody's Got Something
TTITLE1=Blue Heart
TTITLE2=Shaking A Cup
TTITLE3=Daddie's Bones
TTITLE4=La Llorona
TTITLE5=Inside Of Me
TTITLE6=Good To See You Smile Again
TTITLE7=Dollar Girl
TTITLE8=Three Chords
TTITLE9=Lonesome Alone
TTITLE10=Big Ole House
TTITLE11=Peace With The Maker
TTITLE12=Throw Me A Rope
TTITLE13=The Light
TTITLE14=Too Cool
TTITLE15=Bucerius
TTITLE16=Princeville Serenade
EXTD=
EXTT0=
EXTT1=
EXTT2=
EXTT3=
EXTT4=
EXTT5=
EXTT6=
EXTT7=
EXTT8=
EXTT9=
EXTT10=
EXTT11=
EXTT12=
EXTT13=
EXTT14=
EXTT15=
EXTT16=
PLAYORDER=
